<svg width="20" height="20" viewBox="0 0 20 20" fill="none" xmlns="http://www.w3.org/2000/svg">
<g opacity="0.9">
<path d="M6.54175 18.9583H4.29175C2.07508 18.9583 1.04175 17.925 1.04175 15.7083V13.4583C1.04175 11.2417 2.07508 10.2083 4.29175 10.2083H6.54175C8.75841 10.2083 9.79175 11.2417 9.79175 13.4583V15.7083C9.79175 17.925 8.75841 18.9583 6.54175 18.9583ZM4.29175 11.4583C2.75841 11.4583 2.29175 11.925 2.29175 13.4583V15.7083C2.29175 17.2417 2.75841 17.7083 4.29175 17.7083H6.54175C8.07508 17.7083 8.54175 17.2417 8.54175 15.7083V13.4583C8.54175 11.925 8.07508 11.4583 6.54175 11.4583H4.29175Z" fill="white"/>
<path d="M12.5001 18.9583C12.2751 18.9583 12.0667 18.8333 11.9584 18.6417C11.8501 18.45 11.8501 18.2083 11.9667 18.0167L12.8417 16.5583C13.0167 16.2583 13.4001 16.1667 13.7001 16.3417C14.0001 16.5167 14.0917 16.9 13.9167 17.2L13.6917 17.575C15.9917 17.0333 17.7167 14.9667 17.7167 12.5C17.7167 12.1583 18.0001 11.875 18.3417 11.875C18.6834 11.875 18.9667 12.1583 18.9667 12.5C18.9584 16.0583 16.0584 18.9583 12.5001 18.9583Z" fill="white"/>
<path d="M1.66675 8.125C1.32508 8.125 1.04175 7.84166 1.04175 7.5C1.04175 3.94166 3.94175 1.04166 7.50008 1.04166C7.72508 1.04166 7.93341 1.16666 8.04175 1.35833C8.15008 1.55 8.15008 1.79166 8.03341 1.98333L7.15841 3.45C6.98341 3.74166 6.60008 3.84166 6.30008 3.65833C6.00841 3.48333 5.90841 3.1 6.09175 2.8L6.31675 2.425C4.00841 2.96666 2.29175 5.03333 2.29175 7.5C2.29175 7.84166 2.00841 8.125 1.66675 8.125Z" fill="white"/>
<path d="M14.5833 9.79166C12.1749 9.79166 10.2083 7.825 10.2083 5.41666C10.2083 3.00833 12.1749 1.04166 14.5833 1.04166C16.9916 1.04166 18.9583 3.00833 18.9583 5.41666C18.9583 7.825 16.9916 9.79166 14.5833 9.79166ZM14.5833 2.29166C12.8583 2.29166 11.4583 3.69166 11.4583 5.41666C11.4583 7.14166 12.8583 8.54166 14.5833 8.54166C16.3083 8.54166 17.7083 7.14166 17.7083 5.41666C17.7083 3.69166 16.3083 2.29166 14.5833 2.29166Z" fill="white"/>
</g>
</svg>
